<mxfile host="app.diagrams.net" modified="2024-01-12T08:21:18.982Z" agent="Mozilla/5.0 (Windows NT 10.0; Win64; x64) AppleWebKit/537.36 (KHTML, like Gecko) Chrome/120.0.0.0 Safari/537.36" etag="aNlMaKaWQxFWt-WA4nSc" version="22.1.18" type="google">
  <diagram id="TM2u0DbLz-dUQDp400ur" name="Page-1">
    <mxGraphModel grid="0" page="1" gridSize="10" guides="1" tooltips="1" connect="1" arrows="1" fold="1" pageScale="1" pageWidth="827" pageHeight="1169" math="0" shadow="0">
      <root>
        <mxCell id="0" />
        <mxCell id="1" parent="0" />
        <mxCell id="cKmwqZPc9Lmawyfsc9ky-2" value="" style="shape=table;startSize=0;container=1;collapsible=0;childLayout=tableLayout;fontFamily=Times New Roman;fontSize=11;" vertex="1" parent="1">
          <mxGeometry x="69" y="67" width="393" height="39" as="geometry" />
        </mxCell>
        <mxCell id="cKmwqZPc9Lmawyfsc9ky-3" value="" style="shape=tableRow;horizontal=0;startSize=0;swimlaneHead=0;swimlaneBody=0;strokeColor=inherit;top=0;left=0;bottom=0;right=0;collapsible=0;dropTarget=0;fillColor=none;points=[[0,0.5],[1,0.5]];portConstraint=eastwest;fontFamily=Times New Roman;fontSize=11;" vertex="1" parent="cKmwqZPc9Lmawyfsc9ky-2">
          <mxGeometry width="393" height="39" as="geometry" />
        </mxCell>
        <mxCell id="cKmwqZPc9Lmawyfsc9ky-4" value="&lt;font style=&quot;font-size: 11px;&quot;&gt;&lt;b style=&quot;font-size: 11px;&quot;&gt;Layer&lt;/b&gt;:&lt;/font&gt;embedding_1 (Embedding)" style="shape=partialRectangle;html=1;whiteSpace=wrap;connectable=0;strokeColor=inherit;overflow=hidden;fillColor=none;top=0;left=0;bottom=0;right=0;pointerEvents=1;fontFamily=Times New Roman;fontSize=11;" vertex="1" parent="cKmwqZPc9Lmawyfsc9ky-3">
          <mxGeometry width="198" height="39" as="geometry">
            <mxRectangle width="198" height="39" as="alternateBounds" />
          </mxGeometry>
        </mxCell>
        <mxCell id="cKmwqZPc9Lmawyfsc9ky-5" value="&lt;b style=&quot;font-size: 11px;&quot;&gt;Output Shape&lt;/b&gt;:(None, 50, 128)" style="shape=partialRectangle;html=1;whiteSpace=wrap;connectable=0;strokeColor=inherit;overflow=hidden;fillColor=none;top=0;left=0;bottom=0;right=0;pointerEvents=1;fontFamily=Times New Roman;fontSize=11;" vertex="1" parent="cKmwqZPc9Lmawyfsc9ky-3">
          <mxGeometry x="198" width="195" height="39" as="geometry">
            <mxRectangle width="195" height="39" as="alternateBounds" />
          </mxGeometry>
        </mxCell>
        <mxCell id="cKmwqZPc9Lmawyfsc9ky-6" value="" style="shape=table;startSize=0;container=1;collapsible=0;childLayout=tableLayout;fontFamily=Times New Roman;fontSize=11;" vertex="1" parent="1">
          <mxGeometry x="69" y="136" width="394.0833740234375" height="39.916717529296875" as="geometry" />
        </mxCell>
        <mxCell id="cKmwqZPc9Lmawyfsc9ky-7" value="" style="shape=tableRow;horizontal=0;startSize=0;swimlaneHead=0;swimlaneBody=0;strokeColor=inherit;top=0;left=0;bottom=0;right=0;collapsible=0;dropTarget=0;fillColor=none;points=[[0,0.5],[1,0.5]];portConstraint=eastwest;fontFamily=Times New Roman;fontSize=11;" vertex="1" parent="cKmwqZPc9Lmawyfsc9ky-6">
          <mxGeometry width="394.0833740234375" height="40" as="geometry" />
        </mxCell>
        <mxCell id="cKmwqZPc9Lmawyfsc9ky-8" value="&lt;b style=&quot;font-size: 11px;&quot;&gt;Layer&lt;/b&gt;:dropout (Dropout)" style="shape=partialRectangle;html=1;whiteSpace=wrap;connectable=0;strokeColor=inherit;overflow=hidden;fillColor=none;top=0;left=0;bottom=0;right=0;pointerEvents=1;fontFamily=Times New Roman;fontSize=11;" vertex="1" parent="cKmwqZPc9Lmawyfsc9ky-7">
          <mxGeometry width="198" height="40" as="geometry">
            <mxRectangle width="198" height="40" as="alternateBounds" />
          </mxGeometry>
        </mxCell>
        <mxCell id="cKmwqZPc9Lmawyfsc9ky-9" value="&lt;b style=&quot;font-size: 11px;&quot;&gt;Output Shape&lt;/b&gt;:(None, 50, 128)" style="shape=partialRectangle;html=1;whiteSpace=wrap;connectable=0;strokeColor=inherit;overflow=hidden;fillColor=none;top=0;left=0;bottom=0;right=0;pointerEvents=1;fontFamily=Times New Roman;fontSize=11;" vertex="1" parent="cKmwqZPc9Lmawyfsc9ky-7">
          <mxGeometry x="198" width="196" height="40" as="geometry">
            <mxRectangle width="196" height="40" as="alternateBounds" />
          </mxGeometry>
        </mxCell>
        <mxCell id="cKmwqZPc9Lmawyfsc9ky-14" value="" style="shape=table;startSize=0;container=1;collapsible=0;childLayout=tableLayout;fontFamily=Times New Roman;fontSize=11;" vertex="1" parent="1">
          <mxGeometry x="69" y="210" width="396.166748046875" height="40" as="geometry" />
        </mxCell>
        <mxCell id="cKmwqZPc9Lmawyfsc9ky-15" value="" style="shape=tableRow;horizontal=0;startSize=0;swimlaneHead=0;swimlaneBody=0;strokeColor=inherit;top=0;left=0;bottom=0;right=0;collapsible=0;dropTarget=0;fillColor=none;points=[[0,0.5],[1,0.5]];portConstraint=eastwest;fontFamily=Times New Roman;fontSize=11;" vertex="1" parent="cKmwqZPc9Lmawyfsc9ky-14">
          <mxGeometry width="396.166748046875" height="40" as="geometry" />
        </mxCell>
        <mxCell id="cKmwqZPc9Lmawyfsc9ky-16" value="&lt;span style=&quot;color: rgb(0, 0, 0); font-size: 11px; font-style: normal; font-variant-ligatures: normal; font-variant-caps: normal; letter-spacing: normal; orphans: 2; text-align: left; text-indent: 0px; text-transform: none; widows: 2; word-spacing: 0px; -webkit-text-stroke-width: 0px; background-color: rgb(251, 251, 251); text-decoration-thickness: initial; text-decoration-style: initial; text-decoration-color: initial; float: none; display: inline !important;&quot;&gt;&lt;b style=&quot;font-size: 11px;&quot;&gt;Layer:&lt;/b&gt;&lt;/span&gt;conv1d (Conv1D) " style="shape=partialRectangle;html=1;whiteSpace=wrap;connectable=0;strokeColor=inherit;overflow=hidden;fillColor=none;top=0;left=0;bottom=0;right=0;pointerEvents=1;fontFamily=Times New Roman;fontSize=11;" vertex="1" parent="cKmwqZPc9Lmawyfsc9ky-15">
          <mxGeometry width="199" height="40" as="geometry">
            <mxRectangle width="199" height="40" as="alternateBounds" />
          </mxGeometry>
        </mxCell>
        <mxCell id="cKmwqZPc9Lmawyfsc9ky-17" value="&lt;b style=&quot;font-size: 11px;&quot;&gt;Output Shape&lt;/b&gt;:(None, 46, 128)" style="shape=partialRectangle;html=1;whiteSpace=wrap;connectable=0;strokeColor=inherit;overflow=hidden;fillColor=none;top=0;left=0;bottom=0;right=0;pointerEvents=1;fontFamily=Times New Roman;fontSize=11;" vertex="1" parent="cKmwqZPc9Lmawyfsc9ky-15">
          <mxGeometry x="199" width="197" height="40" as="geometry">
            <mxRectangle width="197" height="40" as="alternateBounds" />
          </mxGeometry>
        </mxCell>
        <mxCell id="cKmwqZPc9Lmawyfsc9ky-18" value="" style="shape=table;startSize=0;container=1;collapsible=0;childLayout=tableLayout;fontFamily=Times New Roman;fontSize=11;" vertex="1" parent="1">
          <mxGeometry x="69" y="278" width="397.1633740234374" height="40" as="geometry" />
        </mxCell>
        <mxCell id="cKmwqZPc9Lmawyfsc9ky-19" value="" style="shape=tableRow;horizontal=0;startSize=0;swimlaneHead=0;swimlaneBody=0;strokeColor=inherit;top=0;left=0;bottom=0;right=0;collapsible=0;dropTarget=0;fillColor=none;points=[[0,0.5],[1,0.5]];portConstraint=eastwest;fontFamily=Times New Roman;fontSize=11;" vertex="1" parent="cKmwqZPc9Lmawyfsc9ky-18">
          <mxGeometry width="397.1633740234374" height="40" as="geometry" />
        </mxCell>
        <mxCell id="cKmwqZPc9Lmawyfsc9ky-20" value="&lt;span style=&quot;color: rgb(0, 0, 0); font-size: 11px; font-style: normal; font-variant-ligatures: normal; font-variant-caps: normal; letter-spacing: normal; orphans: 2; text-align: left; text-indent: 0px; text-transform: none; widows: 2; word-spacing: 0px; -webkit-text-stroke-width: 0px; background-color: rgb(251, 251, 251); text-decoration-thickness: initial; text-decoration-style: initial; text-decoration-color: initial; float: none; display: inline !important;&quot;&gt;&lt;b style=&quot;font-size: 11px;&quot;&gt;Layer&lt;/b&gt;&lt;/span&gt;&lt;span style=&quot;color: rgb(0, 0, 0); font-size: 11px; font-style: normal; font-variant-ligatures: normal; font-variant-caps: normal; font-weight: 400; letter-spacing: normal; orphans: 2; text-align: left; text-indent: 0px; text-transform: none; widows: 2; word-spacing: 0px; -webkit-text-stroke-width: 0px; background-color: rgb(251, 251, 251); text-decoration-thickness: initial; text-decoration-style: initial; text-decoration-color: initial; float: none; display: inline !important;&quot;&gt;:&lt;/span&gt;global_average_pooling1d_1&lt;br style=&quot;font-size: 11px;&quot;&gt;(GlobalAveragePooling1D)" style="shape=partialRectangle;html=1;whiteSpace=wrap;connectable=0;strokeColor=inherit;overflow=hidden;fillColor=none;top=0;left=0;bottom=0;right=0;pointerEvents=1;fontFamily=Times New Roman;fontSize=11;" vertex="1" parent="cKmwqZPc9Lmawyfsc9ky-19">
          <mxGeometry width="198" height="40" as="geometry">
            <mxRectangle width="198" height="40" as="alternateBounds" />
          </mxGeometry>
        </mxCell>
        <mxCell id="cKmwqZPc9Lmawyfsc9ky-21" value="&lt;span style=&quot;color: rgb(0, 0, 0); font-size: 11px; font-style: normal; font-variant-ligatures: normal; font-variant-caps: normal; letter-spacing: normal; orphans: 2; text-align: left; text-indent: 0px; text-transform: none; widows: 2; word-spacing: 0px; -webkit-text-stroke-width: 0px; background-color: rgb(251, 251, 251); text-decoration-thickness: initial; text-decoration-style: initial; text-decoration-color: initial; float: none; display: inline !important;&quot;&gt;&lt;b style=&quot;font-size: 11px;&quot;&gt;Output Shape&lt;/b&gt;&lt;/span&gt;&lt;span style=&quot;color: rgb(0, 0, 0); font-size: 11px; font-style: normal; font-variant-ligatures: normal; font-variant-caps: normal; font-weight: 400; letter-spacing: normal; orphans: 2; text-align: left; text-indent: 0px; text-transform: none; widows: 2; word-spacing: 0px; -webkit-text-stroke-width: 0px; background-color: rgb(251, 251, 251); text-decoration-thickness: initial; text-decoration-style: initial; text-decoration-color: initial; float: none; display: inline !important;&quot;&gt;:&lt;/span&gt;(None, 128)" style="shape=partialRectangle;html=1;whiteSpace=wrap;connectable=0;strokeColor=inherit;overflow=hidden;fillColor=none;top=0;left=0;bottom=0;right=0;pointerEvents=1;fontFamily=Times New Roman;fontSize=11;" vertex="1" parent="cKmwqZPc9Lmawyfsc9ky-19">
          <mxGeometry x="198" width="199" height="40" as="geometry">
            <mxRectangle width="199" height="40" as="alternateBounds" />
          </mxGeometry>
        </mxCell>
        <mxCell id="cKmwqZPc9Lmawyfsc9ky-22" value="" style="shape=table;startSize=0;container=1;collapsible=0;childLayout=tableLayout;fontFamily=Times New Roman;fontSize=11;" vertex="1" parent="1">
          <mxGeometry x="69" y="351" width="398.0833740234375" height="40" as="geometry" />
        </mxCell>
        <mxCell id="cKmwqZPc9Lmawyfsc9ky-23" value="" style="shape=tableRow;horizontal=0;startSize=0;swimlaneHead=0;swimlaneBody=0;strokeColor=inherit;top=0;left=0;bottom=0;right=0;collapsible=0;dropTarget=0;fillColor=none;points=[[0,0.5],[1,0.5]];portConstraint=eastwest;fontFamily=Times New Roman;fontSize=11;" vertex="1" parent="cKmwqZPc9Lmawyfsc9ky-22">
          <mxGeometry width="398.0833740234375" height="40" as="geometry" />
        </mxCell>
        <mxCell id="cKmwqZPc9Lmawyfsc9ky-24" value="&lt;span style=&quot;color: rgb(0, 0, 0); font-size: 11px; font-style: normal; font-variant-ligatures: normal; font-variant-caps: normal; letter-spacing: normal; orphans: 2; text-align: left; text-indent: 0px; text-transform: none; widows: 2; word-spacing: 0px; -webkit-text-stroke-width: 0px; background-color: rgb(251, 251, 251); text-decoration-thickness: initial; text-decoration-style: initial; text-decoration-color: initial; float: none; display: inline !important;&quot;&gt;&lt;b style=&quot;font-size: 11px;&quot;&gt;Layer&lt;/b&gt;&lt;/span&gt;&lt;span style=&quot;color: rgb(0, 0, 0); font-size: 11px; font-style: normal; font-variant-ligatures: normal; font-variant-caps: normal; font-weight: 400; letter-spacing: normal; orphans: 2; text-align: left; text-indent: 0px; text-transform: none; widows: 2; word-spacing: 0px; -webkit-text-stroke-width: 0px; background-color: rgb(251, 251, 251); text-decoration-thickness: initial; text-decoration-style: initial; text-decoration-color: initial; float: none; display: inline !important;&quot;&gt;:&lt;/span&gt;dropout_1 (Dropout)" style="shape=partialRectangle;html=1;whiteSpace=wrap;connectable=0;strokeColor=inherit;overflow=hidden;fillColor=none;top=0;left=0;bottom=0;right=0;pointerEvents=1;fontFamily=Times New Roman;fontSize=11;" vertex="1" parent="cKmwqZPc9Lmawyfsc9ky-23">
          <mxGeometry width="198" height="40" as="geometry">
            <mxRectangle width="198" height="40" as="alternateBounds" />
          </mxGeometry>
        </mxCell>
        <mxCell id="cKmwqZPc9Lmawyfsc9ky-25" value="&lt;b style=&quot;font-size: 11px;&quot;&gt;Output Shape&lt;/b&gt;:(None, 128)" style="shape=partialRectangle;html=1;whiteSpace=wrap;connectable=0;strokeColor=inherit;overflow=hidden;fillColor=none;top=0;left=0;bottom=0;right=0;pointerEvents=1;fontFamily=Times New Roman;fontSize=11;" vertex="1" parent="cKmwqZPc9Lmawyfsc9ky-23">
          <mxGeometry x="198" width="200" height="40" as="geometry">
            <mxRectangle width="200" height="40" as="alternateBounds" />
          </mxGeometry>
        </mxCell>
        <mxCell id="cKmwqZPc9Lmawyfsc9ky-27" value="" style="endArrow=classic;html=1;rounded=0;fontFamily=Times New Roman;fontSize=11;" edge="1" parent="1" target="cKmwqZPc9Lmawyfsc9ky-7">
          <mxGeometry width="50" height="50" relative="1" as="geometry">
            <mxPoint x="266" y="107" as="sourcePoint" />
            <mxPoint x="373" y="211" as="targetPoint" />
          </mxGeometry>
        </mxCell>
        <mxCell id="cKmwqZPc9Lmawyfsc9ky-28" value="" style="endArrow=classic;html=1;rounded=0;entryX=0.502;entryY=0.017;entryDx=0;entryDy=0;entryPerimeter=0;fontFamily=Times New Roman;fontSize=11;" edge="1" parent="1" target="cKmwqZPc9Lmawyfsc9ky-15">
          <mxGeometry width="50" height="50" relative="1" as="geometry">
            <mxPoint x="268" y="180" as="sourcePoint" />
            <mxPoint x="266" y="208" as="targetPoint" />
          </mxGeometry>
        </mxCell>
        <mxCell id="cKmwqZPc9Lmawyfsc9ky-29" value="" style="endArrow=classic;html=1;rounded=0;fontFamily=Times New Roman;fontSize=11;" edge="1" parent="1" target="cKmwqZPc9Lmawyfsc9ky-19">
          <mxGeometry width="50" height="50" relative="1" as="geometry">
            <mxPoint x="268" y="252" as="sourcePoint" />
            <mxPoint x="373" y="211" as="targetPoint" />
          </mxGeometry>
        </mxCell>
        <mxCell id="cKmwqZPc9Lmawyfsc9ky-30" value="" style="endArrow=classic;html=1;rounded=0;exitX=0.498;exitY=0.992;exitDx=0;exitDy=0;exitPerimeter=0;fontFamily=Times New Roman;fontSize=11;" edge="1" parent="1" source="cKmwqZPc9Lmawyfsc9ky-19" target="cKmwqZPc9Lmawyfsc9ky-23">
          <mxGeometry width="50" height="50" relative="1" as="geometry">
            <mxPoint x="323" y="305" as="sourcePoint" />
            <mxPoint x="373" y="255" as="targetPoint" />
          </mxGeometry>
        </mxCell>
        <mxCell id="cKmwqZPc9Lmawyfsc9ky-34" value="" style="shape=table;startSize=0;container=1;collapsible=0;childLayout=tableLayout;fontFamily=Times New Roman;fontSize=11;" vertex="1" parent="1">
          <mxGeometry x="69" y="424" width="398.0833740234375" height="40" as="geometry" />
        </mxCell>
        <mxCell id="cKmwqZPc9Lmawyfsc9ky-35" value="" style="shape=tableRow;horizontal=0;startSize=0;swimlaneHead=0;swimlaneBody=0;strokeColor=inherit;top=0;left=0;bottom=0;right=0;collapsible=0;dropTarget=0;fillColor=none;points=[[0,0.5],[1,0.5]];portConstraint=eastwest;fontFamily=Times New Roman;fontSize=11;" vertex="1" parent="cKmwqZPc9Lmawyfsc9ky-34">
          <mxGeometry width="398.0833740234375" height="40" as="geometry" />
        </mxCell>
        <mxCell id="cKmwqZPc9Lmawyfsc9ky-36" value="&lt;span style=&quot;color: rgb(0, 0, 0); font-size: 11px; font-style: normal; font-variant-ligatures: normal; font-variant-caps: normal; letter-spacing: normal; orphans: 2; text-align: left; text-indent: 0px; text-transform: none; widows: 2; word-spacing: 0px; -webkit-text-stroke-width: 0px; background-color: rgb(251, 251, 251); text-decoration-thickness: initial; text-decoration-style: initial; text-decoration-color: initial; float: none; display: inline !important;&quot;&gt;&lt;b style=&quot;font-size: 11px;&quot;&gt;Layer&lt;/b&gt;&lt;/span&gt;&lt;span style=&quot;color: rgb(0, 0, 0); font-size: 11px; font-style: normal; font-variant-ligatures: normal; font-variant-caps: normal; font-weight: 400; letter-spacing: normal; orphans: 2; text-align: left; text-indent: 0px; text-transform: none; widows: 2; word-spacing: 0px; -webkit-text-stroke-width: 0px; background-color: rgb(251, 251, 251); text-decoration-thickness: initial; text-decoration-style: initial; text-decoration-color: initial; float: none; display: inline !important;&quot;&gt;:&lt;/span&gt;dense_3 (Dense)" style="shape=partialRectangle;html=1;whiteSpace=wrap;connectable=0;strokeColor=inherit;overflow=hidden;fillColor=none;top=0;left=0;bottom=0;right=0;pointerEvents=1;fontFamily=Times New Roman;fontSize=11;" vertex="1" parent="cKmwqZPc9Lmawyfsc9ky-35">
          <mxGeometry width="198" height="40" as="geometry">
            <mxRectangle width="198" height="40" as="alternateBounds" />
          </mxGeometry>
        </mxCell>
        <mxCell id="cKmwqZPc9Lmawyfsc9ky-37" value="&lt;b style=&quot;font-size: 11px;&quot;&gt;Output Shape&lt;/b&gt;: (None, 32) " style="shape=partialRectangle;html=1;whiteSpace=wrap;connectable=0;strokeColor=inherit;overflow=hidden;fillColor=none;top=0;left=0;bottom=0;right=0;pointerEvents=1;fontFamily=Times New Roman;fontSize=11;" vertex="1" parent="cKmwqZPc9Lmawyfsc9ky-35">
          <mxGeometry x="198" width="200" height="40" as="geometry">
            <mxRectangle width="200" height="40" as="alternateBounds" />
          </mxGeometry>
        </mxCell>
        <mxCell id="cKmwqZPc9Lmawyfsc9ky-38" value="" style="endArrow=classic;html=1;rounded=0;exitX=0.498;exitY=0.992;exitDx=0;exitDy=0;exitPerimeter=0;fontFamily=Times New Roman;fontSize=11;" edge="1" parent="1" target="cKmwqZPc9Lmawyfsc9ky-35">
          <mxGeometry width="50" height="50" relative="1" as="geometry">
            <mxPoint x="267" y="391" as="sourcePoint" />
            <mxPoint x="373" y="328" as="targetPoint" />
          </mxGeometry>
        </mxCell>
        <mxCell id="cKmwqZPc9Lmawyfsc9ky-39" value="" style="shape=table;startSize=0;container=1;collapsible=0;childLayout=tableLayout;fontFamily=Times New Roman;fontSize=11;" vertex="1" parent="1">
          <mxGeometry x="69" y="499" width="398.0833740234375" height="40" as="geometry" />
        </mxCell>
        <mxCell id="cKmwqZPc9Lmawyfsc9ky-40" value="" style="shape=tableRow;horizontal=0;startSize=0;swimlaneHead=0;swimlaneBody=0;strokeColor=inherit;top=0;left=0;bottom=0;right=0;collapsible=0;dropTarget=0;fillColor=none;points=[[0,0.5],[1,0.5]];portConstraint=eastwest;fontFamily=Times New Roman;fontSize=11;" vertex="1" parent="cKmwqZPc9Lmawyfsc9ky-39">
          <mxGeometry width="398.0833740234375" height="40" as="geometry" />
        </mxCell>
        <mxCell id="cKmwqZPc9Lmawyfsc9ky-41" value="&lt;span style=&quot;color: rgb(0, 0, 0); font-size: 11px; font-style: normal; font-variant-ligatures: normal; font-variant-caps: normal; letter-spacing: normal; orphans: 2; text-align: left; text-indent: 0px; text-transform: none; widows: 2; word-spacing: 0px; -webkit-text-stroke-width: 0px; background-color: rgb(251, 251, 251); text-decoration-thickness: initial; text-decoration-style: initial; text-decoration-color: initial; float: none; display: inline !important;&quot;&gt;&lt;b style=&quot;font-size: 11px;&quot;&gt;Layer&lt;/b&gt;&lt;/span&gt;&lt;span style=&quot;color: rgb(0, 0, 0); font-size: 11px; font-style: normal; font-variant-ligatures: normal; font-variant-caps: normal; font-weight: 400; letter-spacing: normal; orphans: 2; text-align: left; text-indent: 0px; text-transform: none; widows: 2; word-spacing: 0px; -webkit-text-stroke-width: 0px; background-color: rgb(251, 251, 251); text-decoration-thickness: initial; text-decoration-style: initial; text-decoration-color: initial; float: none; display: inline !important;&quot;&gt;:&lt;/span&gt;dropout_2 (Dropout)" style="shape=partialRectangle;html=1;whiteSpace=wrap;connectable=0;strokeColor=inherit;overflow=hidden;fillColor=none;top=0;left=0;bottom=0;right=0;pointerEvents=1;fontFamily=Times New Roman;fontSize=11;" vertex="1" parent="cKmwqZPc9Lmawyfsc9ky-40">
          <mxGeometry width="198" height="40" as="geometry">
            <mxRectangle width="198" height="40" as="alternateBounds" />
          </mxGeometry>
        </mxCell>
        <mxCell id="cKmwqZPc9Lmawyfsc9ky-42" value="&lt;b style=&quot;font-size: 11px;&quot;&gt;Output Shape&lt;/b&gt;:(None, 32)" style="shape=partialRectangle;html=1;whiteSpace=wrap;connectable=0;strokeColor=inherit;overflow=hidden;fillColor=none;top=0;left=0;bottom=0;right=0;pointerEvents=1;fontFamily=Times New Roman;fontSize=11;" vertex="1" parent="cKmwqZPc9Lmawyfsc9ky-40">
          <mxGeometry x="198" width="200" height="40" as="geometry">
            <mxRectangle width="200" height="40" as="alternateBounds" />
          </mxGeometry>
        </mxCell>
        <mxCell id="cKmwqZPc9Lmawyfsc9ky-43" value="" style="endArrow=classic;html=1;rounded=0;exitX=0.498;exitY=0.992;exitDx=0;exitDy=0;exitPerimeter=0;fontFamily=Times New Roman;fontSize=11;" edge="1" parent="1" target="cKmwqZPc9Lmawyfsc9ky-40">
          <mxGeometry width="50" height="50" relative="1" as="geometry">
            <mxPoint x="267" y="466" as="sourcePoint" />
            <mxPoint x="373" y="403" as="targetPoint" />
          </mxGeometry>
        </mxCell>
        <mxCell id="cKmwqZPc9Lmawyfsc9ky-44" value="" style="shape=table;startSize=0;container=1;collapsible=0;childLayout=tableLayout;fontFamily=Times New Roman;fontSize=11;" vertex="1" parent="1">
          <mxGeometry x="69" y="572" width="398.0833740234375" height="40" as="geometry" />
        </mxCell>
        <mxCell id="cKmwqZPc9Lmawyfsc9ky-45" value="" style="shape=tableRow;horizontal=0;startSize=0;swimlaneHead=0;swimlaneBody=0;strokeColor=inherit;top=0;left=0;bottom=0;right=0;collapsible=0;dropTarget=0;fillColor=none;points=[[0,0.5],[1,0.5]];portConstraint=eastwest;fontFamily=Times New Roman;fontSize=11;" vertex="1" parent="cKmwqZPc9Lmawyfsc9ky-44">
          <mxGeometry width="398.0833740234375" height="40" as="geometry" />
        </mxCell>
        <mxCell id="cKmwqZPc9Lmawyfsc9ky-46" value="&lt;span style=&quot;color: rgb(0, 0, 0); font-size: 11px; font-style: normal; font-variant-ligatures: normal; font-variant-caps: normal; letter-spacing: normal; orphans: 2; text-align: left; text-indent: 0px; text-transform: none; widows: 2; word-spacing: 0px; -webkit-text-stroke-width: 0px; background-color: rgb(251, 251, 251); text-decoration-thickness: initial; text-decoration-style: initial; text-decoration-color: initial; float: none; display: inline !important;&quot;&gt;&lt;b style=&quot;font-size: 11px;&quot;&gt;Layer&lt;/b&gt;&lt;/span&gt;&lt;span style=&quot;color: rgb(0, 0, 0); font-size: 11px; font-style: normal; font-variant-ligatures: normal; font-variant-caps: normal; font-weight: 400; letter-spacing: normal; orphans: 2; text-align: left; text-indent: 0px; text-transform: none; widows: 2; word-spacing: 0px; -webkit-text-stroke-width: 0px; background-color: rgb(251, 251, 251); text-decoration-thickness: initial; text-decoration-style: initial; text-decoration-color: initial; float: none; display: inline !important;&quot;&gt;:&lt;/span&gt;dense_4 (Dense)" style="shape=partialRectangle;html=1;whiteSpace=wrap;connectable=0;strokeColor=inherit;overflow=hidden;fillColor=none;top=0;left=0;bottom=0;right=0;pointerEvents=1;fontFamily=Times New Roman;fontSize=11;" vertex="1" parent="cKmwqZPc9Lmawyfsc9ky-45">
          <mxGeometry width="198" height="40" as="geometry">
            <mxRectangle width="198" height="40" as="alternateBounds" />
          </mxGeometry>
        </mxCell>
        <mxCell id="cKmwqZPc9Lmawyfsc9ky-47" value="&lt;b style=&quot;font-size: 11px;&quot;&gt;Output Shape&lt;/b&gt;:(None, 24)" style="shape=partialRectangle;html=1;whiteSpace=wrap;connectable=0;strokeColor=inherit;overflow=hidden;fillColor=none;top=0;left=0;bottom=0;right=0;pointerEvents=1;fontFamily=Times New Roman;fontSize=11;" vertex="1" parent="cKmwqZPc9Lmawyfsc9ky-45">
          <mxGeometry x="198" width="200" height="40" as="geometry">
            <mxRectangle width="200" height="40" as="alternateBounds" />
          </mxGeometry>
        </mxCell>
        <mxCell id="cKmwqZPc9Lmawyfsc9ky-48" value="" style="endArrow=classic;html=1;rounded=0;exitX=0.498;exitY=0.992;exitDx=0;exitDy=0;exitPerimeter=0;fontFamily=Times New Roman;fontSize=11;" edge="1" parent="1" target="cKmwqZPc9Lmawyfsc9ky-45">
          <mxGeometry width="50" height="50" relative="1" as="geometry">
            <mxPoint x="267" y="539" as="sourcePoint" />
            <mxPoint x="373" y="476" as="targetPoint" />
          </mxGeometry>
        </mxCell>
      </root>
    </mxGraphModel>
  </diagram>
</mxfile>
